HIERARCHY
ROOT ROOT
{
	OFFSET 0.000000 56.020000 -5.659234
	CHANNELS 6 Xposition Yposition Zposition Xrotation Yrotation Zrotation 
	JOINT C_spine0001_bind_JNT
	{
		OFFSET 0.000000 1.618999 0.000000
		CHANNELS 3 Xrotation Yrotation Zrotation
		JOINT C_spine0002_bind_JNT
		{
			OFFSET 0.000000 4.942001 0.000001
			CHANNELS 3 Xrotation Yrotation Zrotation
			JOINT C_spine0003_bind_JNT
			{
				OFFSET 0.000000 4.942001 -0.000000
				CHANNELS 3 Xrotation Yrotation Zrotation
				JOINT C_neck0001_bind_JNT
				{
					OFFSET 0.000000 17.026009 -0.000000
					CHANNELS 3 Xrotation Yrotation Zrotation
					JOINT C_neck0002_bind_JNT
					{
						OFFSET 0.000000 3.249985 0.000000
						CHANNELS 3 Xrotation Yrotation Zrotation
						JOINT C_head_bind_JNT
						{
							OFFSET 0.000000 5.278008 0.000000
							CHANNELS 3 Xrotation Yrotation Zrotation
							End Site
							{
								OFFSET 0.000000 0.000000 0.000000
							}
						}
					}
				}
				JOINT L_clavicle_bind_JNT
				{
					OFFSET 4.590000 12.067001 0.834000
					CHANNELS 3 Xrotation Yrotation Zrotation
					JOINT L_armUpper0001_bind_JNT
					{
						OFFSET 7.812635 0.512001 -3.452945
						CHANNELS 3 Xrotation Yrotation Zrotation
						JOINT L_armLower0001_bind_JNT
						{
							OFFSET 15.265892 -6.552116 -0.058157
							CHANNELS 3 Xrotation Yrotation Zrotation
							JOINT L_hand0001_bind_JNT
							{
								OFFSET 14.747667 -6.369995 5.049225
								CHANNELS 3 Xrotation Yrotation Zrotation
								End Site
								{
									OFFSET 0.000000 0.000000 0.000000
								}
							}
						}
					}
				}
				JOINT R_clavicle_bind_JNT
				{
					OFFSET -4.590000 12.067001 0.834000
					CHANNELS 3 Xrotation Yrotation Zrotation
					JOINT R_armUpper0001_bind_JNT
					{
						OFFSET -7.812635 0.512001 -3.452945
						CHANNELS 3 Xrotation Yrotation Zrotation
						JOINT R_armLower0001_bind_JNT
						{
							OFFSET -15.265890 -6.552124 -0.058160
							CHANNELS 3 Xrotation Yrotation Zrotation
							JOINT R_hand0001_bind_JNT
							{
								OFFSET -14.746784 -6.369629 5.048937
								CHANNELS 3 Xrotation Yrotation Zrotation
								End Site
								{
									OFFSET 0.000000 0.000000 0.000000
								}
							}
						}
					}
				}
			}
		}
	}
	JOINT C_pelvis0001_bind_JNT
	{
		OFFSET -0.000000 0.000000 0.000000
		CHANNELS 3 Xrotation Yrotation Zrotation
		JOINT L_legUpper0001_bind_JNT
		{
			OFFSET 6.599999 -6.027000 0.539000
			CHANNELS 3 Xrotation Yrotation Zrotation
			JOINT L_legLower0001_bind_JNT
			{
				OFFSET -0.140713 -19.187443 0.040261
				CHANNELS 3 Xrotation Yrotation Zrotation
				JOINT L_foot0001_bind_JNT
				{
					OFFSET -0.132215 -18.028637 -1.138370
					CHANNELS 3 Xrotation Yrotation Zrotation
					JOINT L_foot0002_bind_JNT
					{
						OFFSET 0.007014 -4.693133 9.886524
						CHANNELS 3 Xrotation Yrotation Zrotation
						End Site
						{
							OFFSET 0.000000 0.000000 0.000000
						}
					}
				}
			}
		}
		JOINT R_legUpper0001_bind_JNT
		{
			OFFSET -6.599999 -6.027000 0.539000
			CHANNELS 3 Xrotation Yrotation Zrotation
			JOINT R_legLower0001_bind_JNT
			{
				OFFSET 0.140710 -19.187164 0.040550
				CHANNELS 3 Xrotation Yrotation Zrotation
				JOINT R_foot0001_bind_JNT
				{
					OFFSET 0.132215 -18.028633 -1.138362
					CHANNELS 3 Xrotation Yrotation Zrotation
					JOINT R_foot0002_bind_JNT
					{
						OFFSET -0.007014 -4.693128 9.886505
						CHANNELS 3 Xrotation Yrotation Zrotation
						End Site
						{
							OFFSET 0.000000 0.000000 0.000000
						}
					}
				}
			}
		}
	}
}
MOTION
Frames: 6
Frame Time: 0.039833
-5.010209 46.391576 89.282455 0.004937 2.916557 -0.009784 1.940341 -0.990303 0.802682 1.817807 5.615276 0.606313 2.929064 5.186464 0.698918 -1.483367 -0.606695 2.565826 0.428996 -2.650430 -1.687738 -1.484603 1.370174 -4.964224 -2.754103 15.007044 -4.580779 10.047557 36.015066 -60.230921 12.374511 12.718306 6.598760 -16.492299 -29.306667 -46.716521 -6.791294 -6.309437 1.114150 0.017971 4.562972 60.035044 10.781093 -2.707059 3.535949 -12.418729 32.048927 22.803992 -0.708475 -1.395334 1.182195 -19.373652 1.765669 -9.045970 6.428615 3.201381 1.443643 -2.588032 -4.049690 0.411678 0.042289 -0.726711 -0.078763 19.061026 4.143681 13.109720 -1.371318 -2.542170 -1.699499 -10.573652 -7.398805 -7.060928 -9.385845 0.293055 -1.280779
-4.833172 46.428644 90.140525 0.000548 2.839401 -0.013512 2.053547 -1.001032 1.152714 1.579762 5.766318 0.266843 2.805662 5.205518 0.531309 -1.559686 -0.674023 2.340172 0.530370 -2.450763 -1.478016 -1.202797 1.261525 -4.665581 -2.809229 15.036724 -4.405431 10.197404 35.973998 -60.470117 12.372142 12.773647 6.412274 -16.388421 -29.063460 -47.028063 -6.493293 -6.490649 1.075091 0.460870 4.174953 60.770134 11.203135 -3.201990 3.059353 -12.622141 32.161148 23.809047 -0.655009 -1.394284 1.470366 -18.267426 1.981418 -9.459773 6.462759 2.602639 1.399806 -1.431830 -3.971345 1.535164 0.233735 -0.747936 -0.162231 19.392784 4.306192 12.320604 -0.952588 -2.725008 -1.373225 -10.096638 -7.579014 -6.357315 -10.882543 0.195036 -1.530817
-4.593779 46.510204 91.091677 0.003533 2.877571 -0.008098 2.338999 -1.277598 1.584873 1.347720 5.883299 -0.259087 2.751380 5.381344 0.330885 -1.662150 -0.728938 2.343604 0.517480 -2.094845 -1.440127 -0.950758 0.961076 -4.400796 -2.901878 14.979426 -4.274834 10.236337 35.688264 -60.786653 12.245708 12.737158 6.235908 -16.507693 -28.955526 -47.290399 -6.271370 -6.704191 1.224557 1.024599 3.610284 61.502061 11.726619 -3.779290 2.279134 -12.950709 32.345244 25.078859 -0.430318 -1.575413 1.618675 -17.358218 1.973441 -9.944394 6.850745 2.642978 1.373531 -0.790950 -4.114772 2.527222 0.417108 -0.756331 -0.392226 19.496530 4.325534 11.607570 0.096020 -2.667824 -1.149219 -9.242725 -7.804439 -5.417487 -13.266250 0.345125 -1.972229
-4.304598 46.647161 92.042267 0.004906 2.722204 -0.008199 2.435067 -1.205315 1.949924 1.329308 5.918796 -0.612046 2.663795 5.325573 0.150409 -1.703480 -0.746692 2.128191 0.573978 -1.764318 -1.316129 -0.723573 0.869469 -3.970153 -3.143723 14.855083 -4.169327 10.269024 35.208989 -61.111798 12.204313 12.431573 5.878455 -16.763163 -28.635610 -47.086226 -6.014557 -6.971109 1.378106 1.530475 3.211393 61.969112 12.106675 -4.230761 1.688775 -13.024260 32.375779 26.306972 -0.238227 -1.538072 1.935784 -16.552946 2.205515 -10.561640 7.329962 2.431976 1.244319 0.018048 -4.095345 3.357062 0.599058 -0.642221 -0.451098 19.218446 4.142612 10.597319 1.361081 -2.623163 -0.892722 -8.084619 -8.050415 -4.248481 -15.760493 0.508490 -2.478545
-3.986485 46.776295 93.083240 0.002915 2.560260 -0.006122 2.552053 -1.207942 2.386493 1.355623 5.856227 -1.081925 2.579323 5.339142 0.034661 -1.703802 -0.725898 1.872238 0.588749 -1.418702 -1.178260 -0.613706 0.772613 -3.569397 -3.292771 14.680355 -4.099743 10.156373 34.635744 -61.521859 12.144758 12.081507 5.592023 -17.175993 -28.457660 -46.858558 -5.788573 -7.188751 1.537187 2.027624 2.819147 62.375705 12.536720 -4.991174 1.050535 -12.865707 32.392694 27.303301 -0.059744 -1.613818 2.202064 -15.636717 2.464947 -11.214633 8.012276 2.248485 1.145410 0.224460 -3.862001 4.297010 0.826484 -0.608265 -0.563649 18.764733 3.995517 9.574536 3.246687 -2.551449 -0.642994 -6.725590 -8.262957 -3.132316 -18.316949 0.486640 -2.698949
-3.662451 46.882307 94.194067 0.004499 2.363789 -0.010066 2.720267 -1.151925 2.794619 1.354747 5.730382 -1.509191 2.514454 5.280865 -0.084335 -1.647890 -0.689805 1.573403 0.599090 -1.013976 -1.007474 -0.516773 0.635735 -3.160715 -3.435544 14.473942 -4.016704 9.970086 34.048307 -61.967015 12.096404 11.657579 5.266869 -17.588175 -28.308789 -46.300522 -5.549883 -7.422202 1.681088 2.454890 2.472937 62.585457 12.959209 -5.901102 0.599978 -12.625053 32.255566 28.152737 0.091675 -1.601637 2.455612 -14.683379 2.528734 -11.841574 8.840554 2.290013 0.920826 0.117313 -3.565932 5.287855 1.045926 -0.532596 -0.580947 17.879484 3.766383 8.526790 5.806635 -2.432536 -0.301106 -5.170107 -8.313086 -2.104154 -21.111072 0.436319 -2.736123
